<svg xmlns="http://www.w3.org/2000/svg" viewBox="0 0 400 400" width="400" height="400">
  <defs>
    <linearGradient id="g1" x2="1" gradientUnits="userSpaceOnUse" gradientTransform="matrix(6.94,80.57,-65.217,5.618,146.65,233.15)">
      <stop offset="0" stop-color="#009fe3"/>
      <stop offset="1" stop-color="#2d2e83"/>
    </linearGradient>
    <linearGradient id="g2" x2="1" gradientUnits="userSpaceOnUse" gradientTransform="matrix(6.93,80.57,-80.57,6.93,97.23,237.4)">
      <stop offset="0" stop-color="#009fe3"/>
      <stop offset="1" stop-color="#2d2e83"/>
    </linearGradient>
    <linearGradient id="g3" x2="1" gradientUnits="userSpaceOnUse" gradientTransform="matrix(6.93,80.58,-80.58,6.93,114.23,235.93)">
      <stop offset="0" stop-color="#009fe3"/>
      <stop offset="1" stop-color="#2d2e83"/>
    </linearGradient>
    <linearGradient id="g4" x2="1" gradientUnits="userSpaceOnUse" gradientTransform="matrix(6.93,80.57,-80.57,6.93,95.73,237.53)">
      <stop offset="0" stop-color="#009fe3"/>
      <stop offset="1" stop-color="#2d2e83"/>
    </linearGradient>
    <linearGradient id="g5" x2="1" gradientUnits="userSpaceOnUse" gradientTransform="matrix(6.93,80.58,-80.58,6.93,112.73,236.06)">
      <stop offset="0" stop-color="#009fe3"/>
      <stop offset="1" stop-color="#2d2e83"/>
    </linearGradient>
    <linearGradient id="g6" x2="1" gradientUnits="userSpaceOnUse" gradientTransform="matrix(6.92,80.52,-90.556,7.783,71.62,239.63)">
      <stop offset="0" stop-color="#009fe3"/>
      <stop offset="1" stop-color="#2d2e83"/>
    </linearGradient>
    <linearGradient id="g7" x2="1" gradientUnits="userSpaceOnUse" gradientTransform="matrix(6.51,75.66,-61.357,5.279,357.74,214.35)">
      <stop offset="0" stop-color="#009fe3"/>
      <stop offset="1" stop-color="#2d2e83"/>
    </linearGradient>
    <linearGradient id="g8" x2="1" gradientUnits="userSpaceOnUse" gradientTransform="matrix(6.93,80.57,-80.57,6.93,311.71,218.95)">
      <stop offset="0" stop-color="#009fe3"/>
      <stop offset="1" stop-color="#2d2e83"/>
    </linearGradient>
    <linearGradient id="g9" x2="1" gradientUnits="userSpaceOnUse" gradientTransform="matrix(6.93,80.58,-80.58,6.93,328.71,217.48)">
      <stop offset="0" stop-color="#009fe3"/>
      <stop offset="1" stop-color="#2d2e83"/>
    </linearGradient>
    <linearGradient id="g10" x2="1" gradientUnits="userSpaceOnUse" gradientTransform="matrix(6.93,80.57,-80.57,6.93,310.2,219.08)">
      <stop offset="0" stop-color="#009fe3"/>
      <stop offset="1" stop-color="#2d2e83"/>
    </linearGradient>
    <linearGradient id="g11" x2="1" gradientUnits="userSpaceOnUse" gradientTransform="matrix(6.93,80.58,-80.58,6.93,327.2,217.61)">
      <stop offset="0" stop-color="#009fe3"/>
      <stop offset="1" stop-color="#2d2e83"/>
    </linearGradient>
    <linearGradient id="g12" x2="1" gradientUnits="userSpaceOnUse" gradientTransform="matrix(6.74,78.38,-87.563,7.53,281.98,221.24)">
      <stop offset="0" stop-color="#009fe3"/>
      <stop offset="1" stop-color="#2d2e83"/>
    </linearGradient>
  </defs>
  <style>
    .s0 { fill: #2c2972 } 
    .s1 { fill: #2d2e83 } 
    .s2 { fill: url(#g1) } 
    .s3 { fill: url(#g2) } 
    .s4 { fill: url(#g3) } 
    .s5 { fill: url(#g4) } 
    .s6 { fill: url(#g5) } 
    .s7 { fill: url(#g6) } 
    .s8 { fill: url(#g7) } 
    .s9 { fill: url(#g8) } 
    .s10 { fill: url(#g9) } 
    .s11 { fill: url(#g10) } 
    .s12 { fill: url(#g11) } 
    .s13 { fill: url(#g12) } 
    .s14 { fill: #f9b233 } 
  </style>
  <g id="Logo" transform="translate(20, 20) scale(1.1)">
    <g>
      <path fill-rule="evenodd" class="s0" d="m72.5 227.7l5.9-148.8 53-42.7 5.9 166.4v-184.1l-66.3 54.5 1.5 154.7z"/>
      <path fill-rule="evenodd" class="s0" d="m174.1 31.8l-30.9-13.3 23.6 19.2 10.3 203.2-3-209.1z"/>
    </g>
    <path fill-rule="evenodd" class="s0" d="m178.7 96.1l21-13.8 49.1 26.9 1.3 106-5.9-102.1-40.6-22.3-2.6 161.1-3.9-161.7-18.4 5.9z"/>
    <path fill-rule="evenodd" class="s0" d="m329.9 49.3l-28.4 14.7 3.9 61.9 2-58 20.6-10.8v95.3l-41.3-28.5-26.5 12.7-2.9 72.7 8.8-66.7 17.7-9.9 4.9 74.7 2-72.7 44.2 29.4v-99.1l16.7 16.7 6.8 178.7v-183.6l-28.5-27.5z"/>
    <path class="s1" d="m429.8 307.2c-251.3-95.9-419.5 39.4-419.5 39.4 122.1-69.7 255.1-58.2 329.4-43.2 26.1 5.3 51.2 12.9 75.1 22.4 300 119.2 541.2-67.3 541.2-67.3 0 0-281.5 142-526.2 48.7z"/>
    <g>
      <path fill-rule="evenodd" class="s2" d="m108.9 206.7v20.2l80 64.9-80-85.1z"/>
      <path fill-rule="evenodd" class="s3" d="m92.3 249h13v13.1h-13z"/>
      <path fill-rule="evenodd" class="s4" d="m109.4 249h13.1v13.1h-13.1z"/>
      <path fill-rule="evenodd" class="s5" d="m92.3 266.7h13v13.1h-13z"/>
      <path fill-rule="evenodd" class="s6" d="m109.4 266.7h13.1v13.1h-13.1z"/>
      <path class="s7" d="m79.2 237.8v-14.5h-15.2v30.5l-28.6 30.5c7.4-1.8 73.5-57.4 73.5-57.4v-20.2l-29.8 31.1z"/>
    </g>
    <g>
      <path class="s8" d="m324.5 208l0.5 20.2c0 0 68.5 59.2 72.7 57.1 0 0-73.2-77.3-73.2-77.3z"/>
      <path fill-rule="evenodd" class="s9" d="m308.4 250.3h13.1v13.1h-13.1z"/>
      <path fill-rule="evenodd" class="s10" d="m325.6 250.3h13v13.1h-13.1z"/>
      <path fill-rule="evenodd" class="s11" d="m308.4 268h13.1v13h-13.1z"/>
      <path fill-rule="evenodd" class="s12" d="m325.6 268h13v13h-13.1z"/>
      <path fill-rule="evenodd" class="s13" d="m324.5 208l-29.2 31.1v-14.5h-15.1v30.5l-35.7 38 80.5-64.9-0.5-20.2z"/>
    </g>
    <path fill-rule="evenodd" class="s14" d="m236.2 65.6c-15.9 0-28.6-12.8-28.6-28.6 0-15.8 12.7-28.6 28.6-28.6 15.8 0 28.6 12.8 28.6 28.6 0 15.8-12.8 28.6-28.6 28.6z"/>
  </g>
</svg>
