<?xml version="1.0" encoding="UTF-8"?>
<svg id="Layer_1" xmlns="http://www.w3.org/2000/svg" xmlns:xlink="http://www.w3.org/1999/xlink" viewBox="0 0 1176.3 780">
  <defs>
    <style>
      .cls-1 {
        letter-spacing: .29em;
      }

      .cls-2 {
        fill: url(#linear-gradient-2);
      }

      .cls-3 {
        fill: url(#linear-gradient-10);
      }

      .cls-4 {
        fill: url(#linear-gradient-12);
      }

      .cls-5 {
        fill: url(#linear-gradient-4);
      }

      .cls-6 {
        fill: url(#linear-gradient-3);
      }

      .cls-7 {
        fill: #f9b233;
      }

      .cls-8 {
        fill: url(#linear-gradient-5);
      }

      .cls-9 {
        font-family: Montserrat-Regular, Montserrat;
        font-size: 39.44px;
      }

      .cls-9, .cls-10 {
        fill: #2d2e83;
      }

      .cls-11 {
        fill: url(#linear-gradient-8);
      }

      .cls-12 {
        fill: #2c2972;
      }

      .cls-13 {
        fill: url(#linear-gradient-7);
      }

      .cls-14 {
        fill: url(#linear-gradient-9);
      }

      .cls-15 {
        fill: url(#linear-gradient-11);
      }

      .cls-16 {
        fill: url(#Gradient_bez_nazwy_21);
      }

      .cls-17 {
        fill: url(#linear-gradient-6);
      }

      .cls-18 {
        letter-spacing: .29em;
      }

      .cls-19 {
        letter-spacing: .3em;
      }

      .cls-20 {
        fill: url(#linear-gradient);
      }

      .cls-21 {
        letter-spacing: .3em;
      }
    </style>
    <linearGradient id="linear-gradient" x1="251.65" y1="436.15" x2="258.59" y2="516.72" gradientUnits="userSpaceOnUse">
      <stop offset="0" stop-color="#009fe3"/>
      <stop offset="1" stop-color="#2d2e83"/>
    </linearGradient>
    <linearGradient id="linear-gradient-2" x1="202.23" y1="440.4" x2="209.16" y2="520.97" xlink:href="#linear-gradient"/>
    <linearGradient id="linear-gradient-3" x1="219.23" y1="438.93" x2="226.16" y2="519.51" xlink:href="#linear-gradient"/>
    <linearGradient id="linear-gradient-4" x1="200.73" y1="440.53" x2="207.66" y2="521.1" xlink:href="#linear-gradient"/>
    <linearGradient id="linear-gradient-5" x1="217.73" y1="439.06" x2="224.66" y2="519.64" xlink:href="#linear-gradient"/>
    <linearGradient id="linear-gradient-6" x1="176.62" y1="442.63" x2="183.54" y2="523.15" xlink:href="#linear-gradient"/>
    <linearGradient id="linear-gradient-7" x1="462.74" y1="417.35" x2="469.25" y2="493.01" xlink:href="#linear-gradient"/>
    <linearGradient id="linear-gradient-8" x1="416.71" y1="421.95" x2="423.64" y2="502.52" xlink:href="#linear-gradient"/>
    <linearGradient id="linear-gradient-9" x1="433.71" y1="420.48" x2="440.64" y2="501.06" xlink:href="#linear-gradient"/>
    <linearGradient id="linear-gradient-10" x1="415.2" y1="422.08" x2="422.13" y2="502.65" xlink:href="#linear-gradient"/>
    <linearGradient id="linear-gradient-11" x1="432.2" y1="420.61" x2="439.13" y2="501.19" xlink:href="#linear-gradient"/>
    <linearGradient id="linear-gradient-12" x1="386.98" y1="424.24" x2="393.72" y2="502.62" xlink:href="#linear-gradient"/>
    <linearGradient id="Gradient_bez_nazwy_21" data-name="Gradient bez nazwy 21" x1="555.53" y1="367.09" x2="987.1" y2="367.09" gradientUnits="userSpaceOnUse">
      <stop offset="0" stop-color="#0080c9"/>
      <stop offset=".22" stop-color="#0381ca"/>
      <stop offset=".4" stop-color="#0c87cd"/>
      <stop offset=".55" stop-color="#1d91d2"/>
      <stop offset=".69" stop-color="#349fda"/>
      <stop offset=".83" stop-color="#51b1e4"/>
      <stop offset=".96" stop-color="#75c7f0"/>
      <stop offset="1" stop-color="#83d0f5"/>
    </linearGradient>
  </defs>
  <g id="Layer_2">
    <g>
      <g>
        <polygon class="cls-12" points="177.5 430.66 183.39 281.9 236.41 239.19 242.3 405.62 242.3 221.51 176.02 276.01 177.5 430.66"/>
        <polygon class="cls-12" points="279.12 234.77 248.19 221.51 271.76 240.66 282.07 443.91 279.12 234.77"/>
      </g>
      <polygon class="cls-12" points="283.72 299.07 304.67 285.32 353.77 312.16 355.08 418.21 349.19 316.09 308.6 293.83 305.98 454.87 302.05 293.18 283.72 299.07"/>
      <polygon class="cls-12" points="434.94 252.26 406.47 266.99 410.39 328.85 412.36 270.92 432.98 260.12 432.98 355.37 391.74 326.89 365.22 339.65 362.28 412.32 371.12 345.55 388.79 335.73 393.7 410.36 395.66 337.69 439.85 367.15 439.85 267.97 456.55 284.67 463.42 463.38 463.42 279.76 434.94 252.26"/>
      <path class="cls-10" d="M534.84,510.2c-251.36-95.88-419.5,39.44-419.5,39.44,122.01-69.71,255.04-58.28,329.33-43.23,26.1,5.29,51.22,12.93,75.13,22.42,300.05,119.14,541.16-67.28,541.16-67.28,0,0-281.41,141.98-526.12,48.64Z"/>
      <g>
        <polygon class="cls-20" points="213.87 409.72 213.87 429.87 293.95 494.84 213.87 409.72"/>
        <rect class="cls-2" x="197.25" y="452.03" width="13.09" height="13.09"/>
        <rect class="cls-6" x="214.37" y="452.03" width="13.09" height="13.09"/>
        <rect class="cls-5" x="197.25" y="469.66" width="13.09" height="13.09"/>
        <rect class="cls-8" x="214.37" y="469.66" width="13.09" height="13.09"/>
        <path class="cls-17" d="M184.15,440.77v-14.43h-15.11v30.49l-28.67,30.47c7.44-1.81,73.49-57.44,73.49-57.44v-20.15l-29.72,31.05Z"/>
      </g>
      <g>
        <path class="cls-13" d="M429.54,411.02l.5,20.15s68.5,59.25,72.68,57.11l-73.19-77.26Z"/>
        <rect class="cls-11" x="413.42" y="453.33" width="13.09" height="13.09"/>
        <rect class="cls-14" x="430.55" y="453.33" width="13.09" height="13.09"/>
        <rect class="cls-3" x="413.42" y="470.96" width="13.09" height="13.09"/>
        <rect class="cls-15" x="430.55" y="470.96" width="13.09" height="13.09"/>
        <polygon class="cls-4" points="429.54 411.02 400.33 442.07 400.33 427.64 385.22 427.64 385.22 458.13 349.46 496.14 430.04 431.17 429.54 411.02"/>
      </g>
      <circle class="cls-7" cx="341.16" cy="239.98" r="28.6"/>
      <path class="cls-16" d="M561.03,405.73l28.68-73.25h8.3l31.41,75.27,9.13,1.07v2.84h-34.85v-2.84l9.6-1.07-10.91-27.26h-26.67l-9.48,25.25,10.55,3.08v2.84h-24.77v-2.84l9.01-3.08ZM589.01,347.3l-11.62,28.8h23.23l-11.62-28.8ZM661.31,353.22l-.71,14.58h.47c2.73-8.65,9.84-15.41,18.02-15.41,4.5,0,6.64,3.2,6.64,6.52,0,2.37-1.19,4.98-3.44,6.28-1.78-1.42-4.03-1.9-6.16-1.9-7.47,0-14.82,4.62-14.82,9.25v35.68l10.67.71v2.73h-33.31v-2.73l7.82-.59v-50.61l-9.6-.47v-2.73l24.42-1.3ZM696.04,396.37c0-9.48.24-27.62.59-39.47h-8.06v-3.08h8.18l.12-17.42h15.17l-.36,17.42h16.59v3.08h-16.59l-.24,9.6c-.24,12.8-.36,27.38-.36,35.2,0,6.64,1.54,7.94,4.15,7.94,4.27,0,9.25-5.81,11.14-12.68.71,0,2.96.12,2.25,2.49-2.49,8.3-9.13,13.51-16.83,13.51s-15.76-2.01-15.76-16.59ZM825.71,351.09c0,9.84-6.28,17.31-19.08,18.73h.12c15.88,2.96,22.88,8.77,22.88,20.39,0,15.41-15.05,21.45-33.31,21.45h-33.66v-2.84l10.19-1.19v-71.24l-10.07-1.19v-2.73h34.61c20.27,0,28.33,6.88,28.33,18.61ZM788.85,368.87h2.84c10.67,0,17.54-5.45,17.54-18.25,0-10.55-4.5-14.93-14.94-14.93h-5.45v33.19ZM791.93,372.19c-1.66,0-2.49.12-3.08.12v36.03c1.78.47,3.44.59,5.22.59,9.25,0,19.32-4.27,19.32-19.68,0-10.9-5.69-14.7-11.62-16-3.2-.71-6.52-1.07-9.84-1.07ZM859.85,353.1c-.59,13.39-1.18,28.8-1.18,42.08,0,8.89,1.66,13.39,8.06,13.39,8.42,0,16-12.33,16-17.78v-33.19l-9.36-.47v-2.73l24.54-1.54v55l9.6.47v2.73l-24.3,1.42.59-11.85h-1.19c-4.39,7.82-11.62,12.21-19.91,12.21-11.73,0-18.96-4.98-18.96-18.25s.36-23.35,1.3-36.98l-8.77-.47v-2.73l23.59-1.3ZM973.4,320.63v88.3l10.08.47.12,2.73-24.77,1.42.24-10.67h-.71c-4.03,6.76-11.97,10.55-20.03,10.55-13.28,0-25.01-8.65-25.01-28.8s12.45-31.65,31.05-31.65c3.67,0,9.84,1.3,13.87,3.44v-30.11l-10.19-.71v-2.96l25.37-2.01ZM958.11,360.81c-3.32-3.08-8.42-4.39-12.09-4.39-13.04,0-15.65,13.39-15.65,27.97,0,18.02,3.91,25.25,11.26,25.25,9.72,0,16.48-10.67,16.48-16.24v-32.6Z"/>
      <text class="cls-9" transform="translate(552.02 462.08)"><tspan class="cls-19" x="0" y="0">Bogusł</tspan><tspan class="cls-18" x="209.36" y="0">a</tspan><tspan class="cls-19" x="244.07" y="0">w </tspan><tspan class="cls-18" x="312.74" y="0">K</tspan><tspan class="cls-1" x="352.22" y="0">r</tspan><tspan class="cls-21" x="379.36" y="0">ól</tspan></text>
    </g>
  </g>
</svg>